<defs>
<font horiz-adv-x="904" ><font-face
    font-family="sansation-bold"
    units-per-em="2048"
    panose-1="2 0 0 0 0 0 0 0 0 0"
    ascent="1854"
    descent="-438"
    alphabetic="0" />
<missing-glyph horiz-adv-x="1124" d="M50 0V1280H1074V0H50ZM82 32H1042V1248H82V32Z" />
<glyph unicode=" " glyph-name="space" horiz-adv-x="450" />
<glyph unicode="!" glyph-name="exclam" horiz-adv-x="565" d="M415 1430V370H150V1430H415ZM415 245V0H150V245H415Z" />
<glyph unicode="&quot;" glyph-name="quotedbl" horiz-adv-x="815" d="M715 1430L685 995H500L470 1430H715ZM345 1430L315 995H130L100 1430H345Z" />
<glyph unicode="#" glyph-name="numbersign" horiz-adv-x="1893" d="M803 876L713 498H1090L1180 876H803ZM403 -5L492 344H100L130 498H532L621 876H220L250 1030H662L762 1425H942L842 1030H1220L1322 1430H1502L1401 1030H1793L1763 876H1361L1272 498H1673L1643
344H1231L1141 -5H961L1051 344H673L583 -5H403Z" />
<glyph unicode="$" glyph-name="dollar" horiz-adv-x="1025" d="M399 1231V1430H654V1235Q790 1223 915 1180V960Q740 1030 535 1030Q320 1030 320 920Q320 815 445 815H615Q965 815 965 500Q965 224 654 179V0H399V175Q251 187 125 230V450Q300 380 529 380Q700
380 700 490Q700 595 585 595H395Q75 595 75 910Q75 1185 399 1231Z" />
<glyph unicode="%" glyph-name="percent" horiz-adv-x="1502" d="M365 0H100L1117 1430H1382L365 0ZM290 995T428 995Q562 995 562 1142Q562 1266 428 1266Q290 1266 290 1142Q290 995 428 995ZM100 1140Q100 1440 428 1440Q752 1440 752 1140Q752 821 428 821Q100
821 100 1140ZM940 164T1078 164Q1212 164 1212 301Q1212 435 1078 435Q940 435 940 301Q940 164 1078 164ZM750 299Q750 609 1078 609Q1402 609 1402 299Q1402 -10 1078 -10Q750 -10 750 299Z" />
<glyph unicode="&amp;" glyph-name="ampersand" horiz-adv-x="1335" d="M100 1035Q100 1430 610 1430Q795 1430 970 1380V1170Q795 1220 623 1220Q365 1220 365 1040Q365 830 570 830H908V972H1051L1153 830H1335V620H1173V490Q1173 -3 625 -3Q100 -3 100 414Q100
641 283 727Q100 812 100 1035ZM572 620Q365 620 365 419Q365 210 626 210Q908 210 908 492V620H572Z" />
<glyph unicode="&apos;" glyph-name="quotesingle" horiz-adv-x="445" d="M345 1430L315 995H130L100 1430H345Z" />
<glyph unicode="(" glyph-name="parenleft" horiz-adv-x="640" d="M565 1430Q365 978 365 525Q365 72 565 -380H300Q100 72 100 525Q100 978 300 1430H565Z" />
<glyph unicode=")" glyph-name="parenright" horiz-adv-x="640" d="M340 1430Q540 978 540 525Q540 72 340 -380H75Q275 72 275 525Q275 978 75 1430H340Z" />
<glyph unicode="*" glyph-name="asterisk" horiz-adv-x="810" d="M328 1430H484L454 1198L663 1299L711 1152L483 1109L642 939L519 847L406 1052L293 848L169 937L330 1108L100 1150L148 1300L359 1197L328 1430Z" />
<glyph unicode="+" glyph-name="plus" horiz-adv-x="950" d="M370 630V900H580V630H850V420H580V150H370V420H100V630H370Z" />
<glyph unicode="," glyph-name="comma" horiz-adv-x="465" d="M440 185L290 -250H25L175 185H440Z" />
<glyph unicode="-" glyph-name="hyphen" horiz-adv-x="700" d="M600 630V420H100V630H600Z" />
<glyph unicode="." glyph-name="period" horiz-adv-x="465" d="M365 245V0H100V245H365Z" />
<glyph unicode="/" glyph-name="slash" horiz-adv-x="1060" d="M310 0H25L750 1430H1035L310 0Z" />
<glyph unicode="0" glyph-name="zero" horiz-adv-x="1445" d="M365 220T728 220Q1080 220 1080 719Q1080 1210 728 1210Q365 1210 365 719Q365 220 728 220ZM90 713Q90 1440 728 1440Q1355 1440 1355 713Q1355 -10 728 -10Q90 -10 90 713Z" />
<glyph unicode="1" glyph-name="one" horiz-adv-x="690" d="M250 0V1211H100V1320L515 1460V0H250Z" />
<glyph unicode="2" glyph-name="two" horiz-adv-x="1180" d="M100 0V200Q815 697 815 1020Q815 1210 555 1210Q335 1210 140 1100V1340Q335 1440 555 1440Q1080 1440 1080 1020Q1080 650 507 230H1080V0H100Z" />
<glyph unicode="3" glyph-name="three" horiz-adv-x="1115" d="M100 1380Q300 1440 520 1440Q1055 1440 1055 1050Q1055 814 867 725Q1055 640 1055 400Q1055 -10 520 -10Q300 -10 100 50V290Q300 220 520 220Q790 220 790 400Q790 610 598 610H250V840H595Q790
840 790 1050Q790 1210 520 1210Q300 1210 100 1140V1380Z" />
<glyph unicode="4" glyph-name="four" horiz-adv-x="1220" d="M1047 0H782V310H60V510L645 1430H929L363 520H782V998H1047V520L1195 384V310H1047V0Z" />
<glyph unicode="5" glyph-name="five" horiz-adv-x="1160" d="M175 1430H1029V1220H403L379 868Q436 890 545 890Q1085 890 1085 450Q1085 -10 525 -10Q325 -10 125 50V270Q325 200 535 200Q820 200 820 450Q820 680 545 680Q320 680 125 630L175 1430Z" />
<glyph unicode="6" glyph-name="six" horiz-adv-x="1250" d="M100 550Q100 1106 788 1473L914 1266Q562 1105 430 877Q551 920 676 920Q1200 920 1200 480Q1200 -10 637 -10Q100 -10 100 550ZM355 200T646 200Q939 200 939 480Q939 710 667 710Q513 710 373 662Q355
622 355 556Q355 200 646 200Z" />
<glyph unicode="7" glyph-name="seven" horiz-adv-x="1170" d="M100 1430H1120V1220L478 0H187L839 1200H100V1430Z" />
<glyph unicode="8" glyph-name="eight" horiz-adv-x="1280" d="M80 424Q80 647 292 755Q120 850 120 1078Q120 1444 640 1444Q1160 1444 1160 1078Q1160 850 983 755Q1200 647 1200 424Q1200 -10 650 -10Q80 -10 80 424ZM895 860T895 1048Q895 1210 642 1210Q385
1210 385 1048Q385 860 645 860Q895 860 895 1048ZM935 220T935 418Q935 630 642 630Q345 630 345 418Q345 220 655 220Q935 220 935 418Z" />
<glyph unicode="9" glyph-name="nine" horiz-adv-x="1265" d="M1200 883Q1200 327 512 -40L386 167Q728 328 870 566Q749 513 624 513Q100 513 100 963Q100 1443 663 1443Q1200 1443 1200 883ZM945 1233T654 1233Q361 1233 361 963Q361 723 633 723Q787 723 927
771Q945 811 945 877Q945 1233 654 1233Z" />
<glyph unicode=":" glyph-name="colon" horiz-adv-x="490" d="M390 1050V805H125V1050H390ZM390 245V0H125V245H390Z" />
<glyph unicode=";" glyph-name="semicolon" horiz-adv-x="615" d="M515 1050V805H250V1050H515ZM515 185L365 -250H100L250 185H515Z" />
<glyph unicode="&lt;" glyph-name="less" horiz-adv-x="1100" d="M100 430V620L1000 1000V750L427 521L1000 300V50L100 430Z" />
<glyph unicode="=" glyph-name="equal" horiz-adv-x="950" d="M850 450V240H100V450H850ZM850 810V600H100V810H850Z" />
<glyph unicode="&gt;" glyph-name="greater" horiz-adv-x="1100" d="M100 50V300L673 521L100 750V1000L1000 620V430L100 50Z" />
<glyph unicode="?" glyph-name="question" horiz-adv-x="1115" d="M515 245V0H250V245H515ZM100 1380Q310 1430 500 1430Q1015 1430 1015 1040Q1015 600 515 600V370H250V810H515Q770 810 770 1040Q770 1220 500 1220Q310 1220 100 1170V1380Z" />
<glyph unicode="@" glyph-name="at" horiz-adv-x="2130" d="M1540 118Q1540 60 1620 60Q1765 60 1765 540Q1765 1230 1079 1230Q365 1230 365 540Q365 -170 1010 -170V-380Q100 -380 100 540Q100 1440 1064 1440Q2030 1440 2030 540Q2030 -150 1583 -150Q1302
-150 1292 94Q1155 0 990 0Q605 0 605 327Q605 640 1061 640Q1168 640 1275 620V699Q1275 840 1072 840Q900 840 690 790V1000Q900 1050 1072 1050Q1540 1050 1540 704V118ZM1175 460T1061 460Q870 460 870 330Q870 190 1030 190Q1162 190 1275 272V440Q1175 460
1061 460Z" />
<glyph unicode="A" glyph-name="A" horiz-adv-x="1562" d="M297 0H25L632 1430H917L1537 0H1252L1089 390H614L705 620H993L768 1157L297 0Z" />
<glyph unicode="B" glyph-name="B" horiz-adv-x="1321" d="M150 0V1430H820Q1228 1430 1228 1097Q1228 853 962 748Q1246 695 1246 423Q1246 0 799 0H150ZM788 230Q964 230 964 410Q964 633 701 633H621V804Q951 859 951 1080Q951 1200 803 1200H415V230H788Z" />
<glyph unicode="C" glyph-name="C" horiz-adv-x="1390" d="M1290 60Q1105 -10 870 -10Q100 -10 100 735Q100 1440 870 1440Q1105 1440 1290 1370V1130Q1105 1210 890 1210Q375 1210 375 735Q375 220 890 220Q1105 220 1290 300V60Z" />
<glyph unicode="D" glyph-name="D" horiz-adv-x="1495" d="M710 230Q1155 230 1155 754Q1155 1200 710 1200H415V230H710ZM150 0V1430H710Q1420 1430 1420 754Q1420 0 710 0H150Z" />
<glyph unicode="E" glyph-name="E" horiz-adv-x="1238" d="M1129 1430V1202H413V842H1095V605H410V230H1143V0H150V1430H1129Z" />
<glyph unicode="F" glyph-name="F" horiz-adv-x="1164" d="M1089 1430V1202H413V842H1055V605H410V0H150V1430H1089Z" />
<glyph unicode="G" glyph-name="G" horiz-adv-x="1390" d="M1290 66Q1117 -10 857 -10Q100 -10 100 735Q100 1440 870 1440Q1105 1440 1290 1370V1130Q1105 1210 890 1210Q375 1210 375 735Q375 220 861 220Q933 220 1025 244V660H1290V66Z" />
<glyph unicode="H" glyph-name="H" horiz-adv-x="1535" d="M150 0V1430H415V840H1120V1430H1385V0H1120V610H415V0H150Z" />
<glyph unicode="I" glyph-name="I" horiz-adv-x="565" d="M415 1430V0H150V1430H415Z" />
<glyph unicode="J" glyph-name="J" horiz-adv-x="740" d="M590 1430V412Q590 0 25 0V230Q325 230 325 412V1430H590Z" />
<glyph unicode="K" glyph-name="K" horiz-adv-x="1435" d="M415 1430V0H150V1430H415ZM1421 1430L811 763L1485 0H1118L565 668V840L1097 1430H1421Z" />
<glyph unicode="L" glyph-name="L" horiz-adv-x="1083" d="M415 1430V230H983V0H150V1430H415Z" />
<glyph unicode="M" glyph-name="M" horiz-adv-x="1800" d="M150 0V1430H425L910 345L1385 1430H1650V0H1405V996L1017 0H791L395 996V0H150Z" />
<glyph unicode="N" glyph-name="N" horiz-adv-x="1575" d="M150 0V1430H415L1170 388V1430H1425V0H1160L405 1064V0H150Z" />
<glyph unicode="O" glyph-name="O" horiz-adv-x="1625" d="M375 220T818 220Q1250 220 1250 719Q1250 1210 818 1210Q375 1210 375 719Q375 220 818 220ZM100 713Q100 1440 818 1440Q1525 1440 1525 713Q1525 -10 818 -10Q132 -10 100 713Z" />
<glyph unicode="P" glyph-name="P" horiz-adv-x="1253" d="M150 0V1430H790Q1228 1430 1228 1027Q1228 590 629 498L591 734Q951 799 951 1019Q951 1197 773 1197H415V0H150Z" />
<glyph unicode="Q" glyph-name="Q" horiz-adv-x="1625" d="M375 220T818 220Q1250 220 1250 719Q1250 1210 818 1210Q375 1210 375 719Q375 220 818 220ZM100 713Q100 1440 818 1440Q1525 1440 1525 713Q1525 115 1080 7L1312 -263L1103 -422L778 -10Q132 -10 100 713Z" />
<glyph unicode="R" glyph-name="R" horiz-adv-x="1325" d="M150 2V1430H800Q1238 1430 1238 1047Q1238 788 897 618L1350 0H1016L581 623V744Q961 809 961 1039Q961 1197 783 1197H420V2H150Z" />
<glyph unicode="S" glyph-name="S" horiz-adv-x="1280" d="M125 60V300Q340 220 611 220Q940 220 940 440Q940 600 738 600H514Q75 600 75 1000Q75 1440 700 1440Q940 1440 1155 1370V1130Q940 1210 700 1210Q340 1210 340 1000Q340 840 514 840H738Q1205 840
1205 440Q1205 -10 611 -10Q340 -10 125 60Z" />
<glyph unicode="T" glyph-name="T" horiz-adv-x="1085" d="M1085 1430V1200H675V0H410V1200H0V1430H1085Z" />
<glyph unicode="U" glyph-name="U" horiz-adv-x="1530" d="M150 562V1430H415V562Q415 220 765 220Q1115 220 1115 562V1430H1380V562Q1380 -10 765 -10Q150 -10 150 562Z" />
<glyph unicode="V" glyph-name="V" horiz-adv-x="1512" d="M1512 1430L885 0H600L0 1430H315L758 335L1200 1430H1512Z" />
<glyph unicode="W" glyph-name="W" horiz-adv-x="1890" d="M35 1430H304L457 403L829 1430H1084L1432 443L1594 1430H1855L1586 0H1334L941 1122L519 0H270L35 1430Z" />
<glyph unicode="X" glyph-name="X" horiz-adv-x="1502" d="M588 715L25 1430H360L755 908L1150 1430H1485L923 715L1485 0H1150L755 522L360 0H25L588 715Z" />
<glyph unicode="Y" glyph-name="Y" horiz-adv-x="1300" d="M25 1430H310L712 741L1090 1430H1365L839 500V0H574V500L25 1430Z" />
<glyph unicode="Z" glyph-name="Z" horiz-adv-x="1250" d="M1185 1430V1200L424 230H1185V0H125V230L919 1200H145V1430H1185Z" />
<glyph unicode="[" glyph-name="bracketleft" horiz-adv-x="680" d="M630 1430V1220H365V-170H630V-380H100V1430H630Z" />
<glyph unicode="\" glyph-name="backslash" horiz-adv-x="1060" d="M25 1430H310L1035 0H750L25 1430Z" />
<glyph unicode="]" glyph-name="bracketright" horiz-adv-x="680" d="M580 1430V-380H50V-170H315V1220H50V1430H580Z" />
<glyph unicode="^" glyph-name="asciicircum" horiz-adv-x="1050" d="M450 1430H600L1000 700H770L521 1173L280 700H50L450 1430Z" />
<glyph unicode="_" glyph-name="underscore" horiz-adv-x="1050" d="M1025 0V-210H25V0H1025Z" />
<glyph unicode="`" glyph-name="grave" horiz-adv-x="663" d="M563 1171H339L100 1430H419L563 1171Z" />
<glyph unicode="a" glyph-name="a" horiz-adv-x="1135" d="M75 327Q75 640 531 640Q638 640 745 620V699Q745 840 542 840Q370 840 160 790V1000Q370 1050 542 1050Q1010 1050 1010 704V0H856L762 94Q625 0 460 0Q75 0 75 327ZM645 460T531 460Q340 460 340 330Q340
190 500 190Q632 190 745 272V440Q645 460 531 460Z" />
<glyph unicode="b" glyph-name="b" horiz-adv-x="1178" d="M390 243Q481 214 601 214Q841 214 841 553Q841 830 634 830Q500 830 390 776V243ZM125 1430H390V970Q509 1050 655 1050Q1103 1050 1103 546Q1103 0 590 0Q374 0 125 43V1430Z" />
<glyph unicode="c" glyph-name="c" horiz-adv-x="950" d="M900 30Q770 0 630 0Q70 0 70 545Q70 1050 630 1050Q770 1050 900 1020V810Q770 840 650 840Q335 840 335 545Q335 210 650 210Q770 210 900 240V30Z" />
<glyph unicode="d" glyph-name="d" horiz-adv-x="1180" d="M790 776Q708 830 584 830Q337 830 337 553Q337 224 594 224Q698 224 790 253V776ZM1055 63Q814 0 584 0Q75 0 75 546Q75 1050 573 1050Q679 1050 790 1000V1430H1055V63Z" />
<glyph unicode="e" glyph-name="e" horiz-adv-x="1120" d="M568 1050Q1046 1050 1046 562Q1046 497 1037 432H340Q340 210 666 210Q825 210 984 240V30Q845 0 646 0Q75 0 75 537Q75 1050 568 1050ZM340 616H788V624Q788 842 568 842Q358 842 340 616Z" />
<glyph unicode="f" glyph-name="f" horiz-adv-x="741" d="M125 0V1050Q125 1482 597 1482Q726 1482 831 1442V1232Q732 1272 616 1272Q390 1272 390 1050H705V840H390V0H125Z" />
<glyph unicode="g" glyph-name="g" horiz-adv-x="1187" d="M797 812Q732 836 612 836Q337 836 337 533Q337 240 574 240Q688 240 797 294V812ZM1062 80Q1062 -380 509 -380Q315 -380 165 -330V-120Q318 -170 511 -170Q797 -170 797 70Q679 20 543 20Q75 20 75
531Q75 1050 620 1050Q803 1050 1062 1007V80Z" />
<glyph unicode="h" glyph-name="h" horiz-adv-x="1205" d="M125 0V1430H390V916Q514 1050 707 1050Q1080 1050 1080 662V0H815V662Q815 836 642 836Q513 836 390 733V0H125Z" />
<glyph unicode="i" glyph-name="i" horiz-adv-x="515" d="M390 1430V1220H125V1430H390ZM390 1050V0H125V1050H390Z" />
<glyph unicode="j" glyph-name="j" horiz-adv-x="515" d="M390 1430V1220H125V1430H390ZM390 1050V80Q390 -238 208 -438L0 -293Q125 -158 125 80V1050H390Z" />
<glyph unicode="k" glyph-name="k" horiz-adv-x="1206" d="M125 0V1430H390V968Q553 1050 733 1050Q1135 1050 1135 747Q1135 527 855 403L1181 0H857L583 375V498Q870 559 870 698Q870 840 680 840Q547 840 390 756V0H125Z" />
<glyph unicode="l" glyph-name="l" horiz-adv-x="515" d="M390 1430V0H125V1430H390Z" />
<glyph unicode="m" glyph-name="m" horiz-adv-x="1795" d="M125 0V1050H330L361 898Q502 1050 700 1050Q898 1050 971 906Q1132 1050 1308 1050Q1670 1050 1670 651V0H1405V661Q1405 836 1247 836Q1129 836 1020 730V0H755V658Q755 836 609 836Q493 836 390 730V0H125Z" />
<glyph unicode="n" glyph-name="n" horiz-adv-x="1205" d="M125 0V1050H330L363 896Q514 1050 707 1050Q1080 1050 1080 662V0H815V662Q815 836 642 836Q513 836 390 733V0H125Z" />
<glyph unicode="o" glyph-name="o" horiz-adv-x="1190" d="M340 200T595 200Q850 200 850 529Q850 850 595 850Q340 850 340 529Q340 200 595 200ZM75 525Q75 1053 595 1053Q1115 1053 1115 525Q1115 -2 595 -2Q77 -2 75 525Z" />
<glyph unicode="p" glyph-name="p" horiz-adv-x="1177" d="M390 274Q489 220 603 220Q840 220 840 553Q840 836 578 836Q465 836 390 822V274ZM125 1007Q334 1050 567 1050Q1102 1050 1102 551Q1102 0 604 0Q498 0 390 50V-380H125V1007Z" />
<glyph unicode="q" glyph-name="q" horiz-adv-x="1187" d="M797 812Q702 836 622 836Q337 836 337 533Q337 220 584 220Q708 220 797 274V812ZM1062 -380H797V50Q689 0 553 0Q75 0 75 531Q75 1050 620 1050Q823 1050 1062 1007V-380Z" />
<glyph unicode="r" glyph-name="r" horiz-adv-x="680" d="M125 0V1050H330L363 916Q501 1050 655 1050V836Q507 836 390 713V0H125Z" />
<glyph unicode="s" glyph-name="s" horiz-adv-x="1025" d="M125 50V270Q300 200 529 200Q700 200 700 310Q700 415 585 415H395Q75 415 75 730Q75 1060 542 1060Q740 1060 915 1000V780Q740 850 535 850Q320 850 320 740Q320 635 445 635H615Q965 635 965 320Q965
-10 519 -10Q300 -10 125 50Z" />
<glyph unicode="t" glyph-name="t" horiz-adv-x="665" d="M110 1220H306L346 1050H610V840H375V357Q375 210 502 210H610V0H374Q110 0 110 283V1220Z" />
<glyph unicode="u" glyph-name="u" horiz-adv-x="1195" d="M1070 1050V0H863L831 134Q650 0 447 0Q125 0 125 381V1050H390V388Q390 214 542 214Q671 214 805 317V1050H1070Z" />
<glyph unicode="v" glyph-name="v" horiz-adv-x="1080" d="M0 1050H280L535 316L800 1050H1080L653 0H401L0 1050Z" />
<glyph unicode="w" glyph-name="w" horiz-adv-x="1599" d="M35 1050H302L438 319L681 1050H908L1170 319L1288 1050H1564L1290 0H1041L794 745L544 0H291L35 1050Z" />
<glyph unicode="x" glyph-name="x" horiz-adv-x="1080" d="M393 525L0 1050H295L540 722L785 1050H1080L688 525L1080 0H785L540 328L295 0H0L393 525Z" />
<glyph unicode="y" glyph-name="y" horiz-adv-x="1081" d="M0 1050H281L546 294L805 1050H1081L645 -31Q529 -317 274 -438L146 -257Q322 -180 402 -6L0 1050Z" />
<glyph unicode="z" glyph-name="z" horiz-adv-x="990" d="M120 1050H930V840L393 200H910V0H100V200L645 840H120V1050Z" />
<glyph unicode="{" glyph-name="braceleft" horiz-adv-x="755" d="M705 1430Q575 1254 575 952Q575 600 325 525Q575 450 575 98Q575 -204 705 -380H440Q310 -204 310 98Q310 410 100 410V640Q310 640 310 952Q310 1254 440 1430H705Z" />
<glyph unicode="|" glyph-name="bar" horiz-adv-x="565" d="M415 1430V-380H150V1430H415Z" />
<glyph unicode="}" glyph-name="braceright" horiz-adv-x="755" d="M315 1430Q445 1254 445 952Q445 640 655 640V410Q445 410 445 98Q445 -204 315 -380H50Q180 -204 180 98Q180 450 350 525Q180 600 180 952Q180 1254 50 1430H315Z" />
<glyph unicode="~" glyph-name="asciitilde" horiz-adv-x="950" d="M100 610Q158 671 262 671Q348 671 465 630Q582 590 672 590Q781 590 850 650V440Q792 380 688 380Q602 380 485 420Q368 461 278 461Q169 461 100 400V610Z" />
<glyph unicode="&#xa0;" glyph-name="nbspace" horiz-adv-x="498" />
<glyph unicode="&#xa1;" glyph-name="exclamdown" horiz-adv-x="565" d="M150 -380V680H415V-380H150ZM150 805V1050H415V805H150Z" />
<glyph unicode="&#xa2;" glyph-name="cent" horiz-adv-x="980" d="M490 1230V1430H745V1237Q844 1230 930 1210V1000Q800 1030 660 1030Q325 1030 325 735Q325 400 660 400Q800 400 930 430V220Q844 200 745 193V0H490V201Q60 266 60 735Q60 1170 490 1230Z" />
<glyph unicode="&#xa3;" glyph-name="sterling" horiz-adv-x="1217" d="M100 182Q286 257 286 413Q286 530 209 704T132 1027Q132 1440 690 1440Q960 1440 1117 1340V1100Q959 1230 683 1230Q409 1230 409 1029Q409 885 444 830H830V620H516Q555 516 555 416Q555
279 491 238Q513 242 540 242Q624 242 753 199Q802 182 854 182Q979 182 1117 280V50Q997 -34 833 -34Q739 -34 632 -6Q503 26 386 26Q233 26 100 -30V182Z" />
<glyph unicode="&#xa4;" glyph-name="currency" horiz-adv-x="1139" d="M216 756L100 876L209 988L334 867Q442 935 576 935Q700 935 801 867L929 988L1039 876L921 756Q979 673 979 525Q979 386 911 293L1039 173L929 61L801 184Q693 124 568 124Q444 124 325
184L209 61L100 173L216 293Q159 396 159 525Q159 662 216 756ZM322 529Q322 283 567 283Q812 283 812 529Q812 773 567 773Q322 773 322 529Z" />
<glyph unicode="&#xa5;" glyph-name="yen" horiz-adv-x="1250" d="M50 1430H325L617 920L915 1430H1200L787 770H1070V560H744V449H1070V239H744V0H479V239H160V449H479V560H160V770H437L50 1430Z" />
<glyph unicode="&#xa6;" glyph-name="brokenbar" horiz-adv-x="565" d="M415 350V-380H150V350H415ZM414 1430V700H150V1430H414Z" />
<glyph unicode="&#xa7;" glyph-name="section" horiz-adv-x="1090" d="M150 40V260Q325 200 514 200Q725 200 725 290Q725 390 570 390H500Q100 390 100 700Q100 858 231 916Q100 976 100 1140Q100 1440 567 1440Q765 1440 940 1390V1170Q765 1230 567 1230Q345
1230 345 1140Q345 1040 500 1040H570Q990 1040 990 733Q990 583 879 511Q990 457 990 290Q990 -10 514 -10Q325 -10 150 40ZM345 598T500 598H570Q725 598 725 704Q725 831 570 831H500Q345 831 345 717Q345 598 500 598Z" />
<glyph unicode="&#xa8;" glyph-name="dieresis" horiz-adv-x="755" d="M655 1430V1240H440V1430H655ZM315 1430V1240H100V1430H315Z" />
<glyph unicode="&#xa9;" glyph-name="copyright" horiz-adv-x="1785" d="M255 80T878 80Q1530 80 1530 719Q1530 1350 898 1350Q255 1350 255 719Q255 80 878 80ZM150 723Q150 1440 898 1440Q1635 1440 1635 723Q1635 -10 898 -10Q150 -10 150 723ZM1183 336Q1058
285 893 285Q477 285 477 728Q477 1144 893 1144Q1058 1144 1183 1093V995Q1058 1053 907 1053Q582 1053 582 728Q582 376 907 376Q1058 376 1183 434V336Z" />
<glyph unicode="&#xaa;" glyph-name="ordfeminine" horiz-adv-x="642" d="M100 1069Q100 1230 313 1230Q392 1230 440 1220V1270Q440 1336 308 1336Q228 1336 142 1310V1406Q228 1430 308 1430Q542 1430 542 1262V906H486L448 942Q390 906 298 906Q100 906 100
1069ZM395 1136T313 1136Q202 1136 202 1070Q202 1000 298 1000Q394 1000 440 1042V1126Q395 1136 313 1136Z" />
<glyph unicode="&#xab;" glyph-name="guillemotleft" horiz-adv-x="1079" d="M499 525L757 900H1029L771 525L1029 150H757L499 525ZM50 525L308 900H580L322 525L580 150H308L50 525Z" />
<glyph unicode="&#xac;" glyph-name="logicalnot" horiz-adv-x="1085" d="M100 1050H985V650H775V840H100V1050Z" />
<glyph unicode="&#xad;" glyph-name="minus" horiz-adv-x="950" d="M850 630V420H100V630H850Z" />
<glyph unicode="&#xae;" glyph-name="registered" horiz-adv-x="1163" d="M404 756V1292H633Q786 1292 786 1164Q786 1059 636 1009L820 756H729L558 997V1042Q712 1067 712 1161Q712 1235 626 1235H473V756H404ZM223 664T580 664Q940 664 940 1025Q940 1394 580
1394Q223 1394 223 1025Q223 664 580 664ZM150 1023Q150 1450 580 1450Q1013 1450 1013 1023Q1013 608 580 608Q162 608 150 1023Z" />
<glyph unicode="&#xaf;" glyph-name="overscore" horiz-adv-x="700" d="M600 1430V1220H100V1430H600Z" />
<glyph unicode="0;" glyph-name="degree" horiz-adv-x="872" d="M290 965T438 965Q582 965 582 1112Q582 1256 438 1256Q290 1256 290 1112Q290 965 438 965ZM100 1110Q100 1430 438 1430Q772 1430 772 1110Q772 791 438 791Q100 791 100 1110Z" />
<glyph unicode="1;" glyph-name="plusminus" horiz-adv-x="950" d="M370 780V1050H580V780H850V570H580V300H370V570H100V780H370ZM850 210V0H100V210H850Z" />
<glyph unicode="2;" glyph-name="twosuperior" horiz-adv-x="590" d="M50 710V885Q347 1058 347 1190Q347 1255 257 1255Q167 1255 70 1200V1380Q167 1430 257 1430Q540 1430 540 1190Q540 1035 293 885H540V710H50Z" />
<glyph unicode="3;" glyph-name="threesuperior" horiz-adv-x="578" d="M50 1400Q150 1430 250 1430Q528 1430 528 1216Q528 1118 434 1073Q528 1030 528 930Q528 706 250 706Q150 706 50 736V916Q150 880 250 880Q336 880 336 930Q336 996 290 996H126V1150H288Q336
1150 336 1216Q336 1256 250 1256Q150 1256 50 1220V1400Z" />
<glyph unicode="4;" glyph-name="acute" horiz-adv-x="663" d="M244 1430H563L324 1171H100L244 1430Z" />
<glyph unicode="5;" glyph-name="mu" horiz-adv-x="1235" d="M1110 1050V0H903L871 134Q720 0 577 0Q437 0 390 60V-380H125V1050H390V448Q390 214 582 214Q741 214 845 347V1050H1110Z" />
<glyph unicode="6;" glyph-name="paragraph" horiz-adv-x="953" d="M443 -434V538Q0 538 0 986Q0 1430 443 1430H953V1340H803V-434H703V1340H543V-434H443Z" />
<glyph unicode="7;" glyph-name="middot" horiz-adv-x="450" d="M100 525Q100 650 225 650Q350 650 350 525Q350 400 225 400Q100 400 100 525Z" />
<glyph unicode="8;" glyph-name="cedilla" horiz-adv-x="687" d="M100 -244Q208 -294 316 -294Q424 -294 424 -239Q424 -195 341 -195H158L289 75H454L373 -77Q587 -77 587 -239Q587 -422 316 -422Q208 -422 100 -372V-244Z" />
<glyph unicode="9;" glyph-name="onesuperior" horiz-adv-x="328" d="M126 710V1221H50V1316L318 1426V710H126Z" />
<glyph unicode="a;" glyph-name="ordmasculine" horiz-adv-x="700" d="M203 1000T350 1000Q498 1000 498 1170Q498 1336 350 1336Q203 1336 203 1170Q203 1000 350 1000ZM100 1168Q100 1430 350 1430Q600 1430 600 1168Q600 906 350 906Q102 906 100 1168Z" />
<glyph unicode="b;" glyph-name="guillemotright" horiz-adv-x="1079" d="M322 150H50L308 525L50 900H322L580 525L322 150ZM771 150H499L757 525L499 900H771L1029 525L771 150Z" />
<glyph unicode="c;" glyph-name="onequarter" horiz-adv-x="1449" d="M345 0H100L925 1430H1170L345 0ZM872 690Q972 720 1072 720Q1349 720 1349 506Q1349 408 1255 363Q1349 320 1349 220Q1349 -4 1072 -4Q972 -4 872 26V206Q972 170 1072 170Q1156 170
1156 220Q1156 286 1110 286H946V440H1109Q1156 440 1156 506Q1156 546 1072 546Q972 546 872 510V690ZM176 710V1221H100V1316L368 1426V710H176Z" />
<glyph unicode="d;" glyph-name="onehalf" horiz-adv-x="1442" d="M345 0H100L925 1430H1170L345 0ZM852 0V175Q1150 348 1150 480Q1150 545 1060 545Q970 545 872 490V670Q970 720 1060 720Q1342 720 1342 480Q1342 325 1094 175H1342V0H852ZM176 710V1221H100V1316L368
1426V710H176Z" />
<glyph unicode="e;" glyph-name="threequarters" horiz-adv-x="1490" d="M436 0H191L1016 1430H1261L436 0ZM1316 0H1134V150H782V324L1000 714H1192L979 324H1134V548H1316V324L1390 286V150H1316V0ZM100 1400Q200 1430 300 1430Q577 1430 577 1216Q577 1118
483 1073Q577 1030 577 930Q577 706 300 706Q200 706 100 736V916Q200 880 300 880Q384 880 384 930Q384 996 338 996H174V1150H337Q384 1150 384 1216Q384 1256 300 1256Q200 1256 100 1220V1400Z" />
<glyph unicode="f;" glyph-name="questiondown" horiz-adv-x="1115" d="M600 805V1050H865V805H600ZM1015 -330Q805 -380 615 -380Q100 -380 100 10Q100 450 600 450V680H865V240H600Q345 240 345 10Q345 -170 615 -170Q805 -170 1015 -120V-330Z" />
<glyph unicode="0;" glyph-name="Agrave" horiz-adv-x="1562" d="M297 0H25L632 1430H917L1537 0H1252L1089 390H614L705 620H993L768 1157L297 0ZM935 1551H711L472 1810H791L935 1551Z" />
<glyph unicode="1;" glyph-name="Aacute" horiz-adv-x="1562" d="M297 0H25L632 1430H917L1537 0H1252L1089 390H614L705 620H993L768 1157L297 0ZM771 1810H1090L851 1551H627L771 1810Z" />
<glyph unicode="2;" glyph-name="Acircumflex" horiz-adv-x="1562" d="M297 0H25L632 1430H917L1537 0H1252L1089 390H614L705 620H993L768 1157L297 0ZM706 1810H856L1031 1550H851L781 1680L711 1550H531L706 1810Z" />
<glyph unicode="3;" glyph-name="Atilde" horiz-adv-x="1562" d="M297 0H25L632 1430H917L1537 0H1252L1089 390H614L705 620H993L768 1157L297 0ZM531 1764Q591 1810 661 1810Q713 1810 771 1784Q829 1758 885 1758Q960 1758 1031 1804V1594Q971 1548 901
1548Q849 1548 791 1574Q733 1600 677 1600Q602 1600 531 1554V1764Z" />
<glyph unicode="4;" glyph-name="Adieresis" horiz-adv-x="1562" d="M297 0H25L632 1430H917L1537 0H1252L1089 390H614L705 620H993L768 1157L297 0ZM1059 1810V1620H844V1810H1059ZM719 1810V1620H504V1810H719Z" />
<glyph unicode="5;" glyph-name="Aring" horiz-adv-x="1562" d="M776 1474Q910 1474 910 1611Q910 1745 776 1745Q638 1745 638 1611Q638 1474 776 1474ZM297 0H25L632 1430H636Q548 1479 548 1609Q548 1819 776 1819Q1000 1819 1000 1609Q1000 1479 914 1430H917L1537
0H1252L1089 390H614L705 620H993L768 1157L297 0Z" />
<glyph unicode="6;" glyph-name="AE" horiz-adv-x="1925" d="M812 600L880 390H461L307 0H25L632 1430H1780V1200H992L1152 840H1745V610H1251L1417 230H1800V0H1222L762 1144L542 600H812Z" />
<glyph unicode="7;" glyph-name="Ccedilla" horiz-adv-x="1390" d="M720 -2Q100 67 100 735Q100 1440 870 1440Q1105 1440 1290 1370V1130Q1105 1210 890 1210Q375 1210 375 735Q375 220 890 220Q1105 220 1290 300V60Q1108 -9 877 -10L841 -77Q1055 -77 1055
-239Q1055 -422 784 -422Q676 -422 568 -372V-244Q676 -294 784 -294Q892 -294 892 -239Q892 -195 809 -195H626L720 -2Z" />
<glyph unicode="8;" glyph-name="Egrave" horiz-adv-x="1238" d="M1129 1430V1202H413V842H1095V605H410V230H1143V0H150V1430H1129ZM781 1551H557L318 1810H637L781 1551Z" />
<glyph unicode="9;" glyph-name="Eacute" horiz-adv-x="1238" d="M1129 1430V1202H413V842H1095V605H410V230H1143V0H150V1430H1129ZM616 1810H935L696 1551H472L616 1810Z" />
<glyph unicode="a;" glyph-name="Ecircumflex" horiz-adv-x="1238" d="M1129 1430V1202H413V842H1095V605H410V230H1143V0H150V1430H1129ZM552 1810H702L877 1550H697L627 1680L557 1550H377L552 1810Z" />
<glyph unicode="b;" glyph-name="Edieresis" horiz-adv-x="1238" d="M1129 1430V1202H413V842H1095V605H410V230H1143V0H150V1430H1129ZM904 1810V1620H689V1810H904ZM564 1810V1620H349V1810H564Z" />
<glyph unicode="c;" glyph-name="Igrave" horiz-adv-x="565" d="M415 1430V0H150V1430H415ZM437 1551H213L-26 1810H293L437 1551Z" />
<glyph unicode="d;" glyph-name="Iacute" horiz-adv-x="565" d="M415 1430V0H150V1430H415ZM272 1810H591L352 1551H128L272 1810Z" />
<glyph unicode="e;" glyph-name="Icircumflex" horiz-adv-x="565" d="M416 1430V0H151V1430H416ZM208 1810H358L533 1550H353L283 1680L213 1550H33L208 1810Z" />
<glyph unicode="f;" glyph-name="Idieresis" horiz-adv-x="565" d="M415 1430V0H150V1430H415ZM560 1810V1620H345V1810H560ZM220 1810V1620H5V1810H220Z" />
<glyph unicode="&#xd0;" glyph-name="Eth" horiz-adv-x="1455" d="M150 840V1430H670Q1380 1430 1380 754Q1380 0 670 0H150V610H-50V840H150ZM415 840H700V610H415V230H670Q1115 230 1115 754Q1115 1200 670 1200H415V840Z" />
<glyph unicode="&#xd1;" glyph-name="Ntilde" horiz-adv-x="1615" d="M150 0V1430H415L1170 388V1430H1425V0H1160L405 1064V0H150ZM558 1764Q618 1810 688 1810Q740 1810 798 1784Q856 1758 912 1758Q987 1758 1058 1804V1594Q998 1548 928 1548Q876 1548 818
1574Q760 1600 704 1600Q629 1600 558 1554V1764Z" />
<glyph unicode="&#xd2;" glyph-name="Ograve" horiz-adv-x="1625" d="M375 220T818 220Q1250 220 1250 719Q1250 1210 818 1210Q375 1210 375 719Q375 220 818 220ZM100 713Q100 1440 818 1440Q1525 1440 1525 713Q1525 -10 818 -10Q132 -10 100 713ZM967 1551H743L504
1810H823L967 1551Z" />
<glyph unicode="&#xd3;" glyph-name="Oacute" horiz-adv-x="1625" d="M375 220T818 220Q1250 220 1250 719Q1250 1210 818 1210Q375 1210 375 719Q375 220 818 220ZM100 713Q100 1440 818 1440Q1525 1440 1525 713Q1525 -10 818 -10Q132 -10 100 713ZM802 1810H1121L882
1551H658L802 1810Z" />
<glyph unicode="&#xd4;" glyph-name="Ocircumflex" horiz-adv-x="1625" d="M375 220T818 220Q1250 220 1250 719Q1250 1210 818 1210Q375 1210 375 719Q375 220 818 220ZM100 713Q100 1440 818 1440Q1525 1440 1525 713Q1525 -10 818 -10Q132 -10 100 713ZM738
1810H888L1063 1550H883L813 1680L743 1550H563L738 1810Z" />
<glyph unicode="&#xd5;" glyph-name="Otilde" horiz-adv-x="1625" d="M375 220T818 220Q1250 220 1250 719Q1250 1210 818 1210Q375 1210 375 719Q375 220 818 220ZM100 713Q100 1440 818 1440Q1525 1440 1525 713Q1525 -10 818 -10Q132 -10 100 713ZM563 1764Q623
1810 693 1810Q745 1810 803 1784Q861 1758 917 1758Q992 1758 1063 1804V1594Q1003 1548 933 1548Q881 1548 823 1574Q765 1600 709 1600Q634 1600 563 1554V1764Z" />
<glyph unicode="&#xd6;" glyph-name="Odieresis" horiz-adv-x="1625" d="M375 220T818 220Q1250 220 1250 719Q1250 1210 818 1210Q375 1210 375 719Q375 220 818 220ZM100 713Q100 1440 818 1440Q1525 1440 1525 713Q1525 -10 818 -10Q132 -10 100 713ZM1090
1810V1620H875V1810H1090ZM750 1810V1620H535V1810H750Z" />
<glyph unicode="&#xd7;" glyph-name="multiply" horiz-adv-x="879" d="M291 525L100 716L248 864L439 673L630 864L778 716L587 525L778 334L630 186L439 377L248 186L100 334L291 525Z" />
<glyph unicode="&#xd8;" glyph-name="Oslash" horiz-adv-x="1625" d="M595 264Q687 220 818 220Q1250 220 1250 719Q1250 917 1180 1035L595 264ZM444 404L1025 1172Q939 1210 818 1210Q375 1210 375 719Q375 523 444 404ZM444 65L395 0H138L280 187Q115 368 100
713Q100 1440 818 1440Q1030 1440 1179 1374L1221 1430H1479L1349 1258Q1525 1076 1525 713Q1525 -10 818 -10Q597 -10 444 65Z" />
<glyph unicode="&#xd9;" glyph-name="Ugrave" horiz-adv-x="1530" d="M150 562V1430H415V562Q415 220 765 220Q1115 220 1115 562V1430H1380V562Q1380 -10 765 -10Q150 -10 150 562ZM919 1551H695L456 1810H775L919 1551Z" />
<glyph unicode="&#xda;" glyph-name="Uacute" horiz-adv-x="1530" d="M150 562V1430H415V562Q415 220 765 220Q1115 220 1115 562V1430H1380V562Q1380 -10 765 -10Q150 -10 150 562ZM755 1810H1074L835 1551H611L755 1810Z" />
<glyph unicode="&#xdb;" glyph-name="Ucircumflex" horiz-adv-x="1530" d="M150 562V1430H415V562Q415 220 765 220Q1115 220 1115 562V1430H1380V562Q1380 -10 765 -10Q150 -10 150 562ZM690 1810H840L1015 1550H835L765 1680L695 1550H515L690 1810Z" />
<glyph unicode="&#xdc;" glyph-name="Udieresis" horiz-adv-x="1530" d="M150 562V1430H415V562Q415 220 765 220Q1115 220 1115 562V1430H1380V562Q1380 -10 765 -10Q150 -10 150 562ZM1043 1810V1620H828V1810H1043ZM703 1810V1620H488V1810H703Z" />
<glyph unicode="&#xdd;" glyph-name="Yacute" horiz-adv-x="1300" d="M25 1430H310L712 741L1090 1430H1365L839 500V0H574V500L25 1430ZM685 1810H1004L765 1551H541L685 1810Z" />
<glyph unicode="&#xde;" glyph-name="Thorn" horiz-adv-x="1278" d="M150 0V1430H424V1122H820Q1228 1122 1228 759Q1228 332 639 240L601 476Q951 541 951 751Q951 889 803 889H415V0H150Z" />
<glyph unicode="&#xdf;" glyph-name="germandbls" horiz-adv-x="1216" d="M125 0V959Q125 1427 629 1427Q1099 1427 1099 1050V915Q795 862 795 727Q795 656 980 600T1166 332Q1166 0 742 0H530V210H744Q891 210 891 312Q891 413 716 469T540 724Q540 922 828
1050Q828 1217 622 1217Q390 1217 390 956V0H125Z" />
<glyph unicode="&#xe0;" glyph-name="agrave" horiz-adv-x="1135" d="M75 327Q75 640 531 640Q638 640 745 620V699Q745 840 542 840Q370 840 160 790V1000Q370 1050 542 1050Q1010 1050 1010 704V0H856L762 94Q625 0 460 0Q75 0 75 327ZM645 460T531 460Q340
460 340 330Q340 190 500 190Q632 190 745 272V440Q645 460 531 460ZM717 1171H493L254 1430H573L717 1171Z" />
<glyph unicode="&#xe1;" glyph-name="aacute" horiz-adv-x="1135" d="M75 327Q75 640 531 640Q638 640 745 620V699Q745 840 542 840Q370 840 160 790V1000Q370 1050 542 1050Q1010 1050 1010 704V0H856L762 94Q625 0 460 0Q75 0 75 327ZM645 460T531 460Q340
460 340 330Q340 190 500 190Q632 190 745 272V440Q645 460 531 460ZM542 1430H861L622 1171H398L542 1430Z" />
<glyph unicode="&#xe2;" glyph-name="acircumflex" horiz-adv-x="1135" d="M75 327Q75 640 531 640Q638 640 745 620V699Q745 840 542 840Q370 840 160 790V1000Q370 1050 542 1050Q1010 1050 1010 704V0H856L762 94Q625 0 460 0Q75 0 75 327ZM645 460T531 460Q340
460 340 330Q340 190 500 190Q632 190 745 272V440Q645 460 531 460ZM488 1430H638L813 1170H633L563 1300L493 1170H313L488 1430Z" />
<glyph unicode="&#xe3;" glyph-name="atilde" horiz-adv-x="1135" d="M75 327Q75 640 531 640Q638 640 745 620V699Q745 840 542 840Q370 840 160 790V1000Q370 1050 542 1050Q1010 1050 1010 704V0H856L762 94Q625 0 460 0Q75 0 75 327ZM645 460T531 460Q340
460 340 330Q340 190 500 190Q632 190 745 272V440Q645 460 531 460ZM313 1384Q373 1430 443 1430Q495 1430 553 1404Q611 1378 667 1378Q742 1378 813 1424V1214Q753 1168 683 1168Q631 1168 573 1194Q515 1220 459 1220Q384 1220 313 1174V1384Z" />
<glyph unicode="&#xe4;" glyph-name="adieresis" horiz-adv-x="1135" d="M75 327Q75 640 531 640Q638 640 745 620V699Q745 840 542 840Q370 840 160 790V1000Q370 1050 542 1050Q1010 1050 1010 704V0H856L762 94Q625 0 460 0Q75 0 75 327ZM645 460T531 460Q340
460 340 330Q340 190 500 190Q632 190 745 272V440Q645 460 531 460ZM840 1430V1240H625V1430H840ZM500 1430V1240H285V1430H500Z" />
<glyph unicode="&#xe5;" glyph-name="aring" horiz-adv-x="1135" d="M75 327Q75 640 531 640Q638 640 745 620V699Q745 840 542 840Q370 840 160 790V1000Q370 1050 542 1050Q1010 1050 1010 704V0H856L762 94Q625 0 460 0Q75 0 75 327ZM645 460T531 460Q340 460
340 330Q340 190 500 190Q632 190 745 272V440Q645 460 531 460ZM422 1226T560 1226Q694 1226 694 1363Q694 1497 560 1497Q422 1497 422 1363Q422 1226 560 1226ZM332 1361Q332 1571 560 1571Q784 1571 784 1361Q784 1152 560 1152Q332 1152 332 1361Z" />
<glyph unicode="&#xe6;" glyph-name="ae" horiz-adv-x="1745" d="M625 460T511 460Q340 460 340 330Q340 190 490 190Q642 190 735 272V440Q625 460 511 460ZM1001 616H1449Q1433 840 1239 840Q1019 840 1001 616ZM164 792V997Q332 1050 498 1050Q797 1050 894
914Q1021 1050 1236 1050Q1692 1050 1692 583Q1692 508 1680 432H1003Q1003 210 1363 210Q1511 210 1648 239V30Q1502 0 1307 0Q1032 0 889 112Q696 0 491 0Q75 0 75 329Q75 650 512 650Q616 650 738 628Q738 840 496 840Q326 840 164 792Z" />
<glyph unicode="&#xe7;" glyph-name="ccedilla" horiz-adv-x="950" d="M453 16Q70 95 70 545Q70 1050 630 1050Q770 1050 900 1020V810Q770 840 650 840Q335 840 335 545Q335 210 650 210Q770 210 900 240V30Q770 0 630 0H606L565 -77Q779 -77 779 -239Q779 -422
508 -422Q400 -422 292 -372V-244Q400 -294 508 -294Q616 -294 616 -239Q616 -195 533 -195H350L453 16Z" />
<glyph unicode="&#xe8;" glyph-name="egrave" horiz-adv-x="1120" d="M568 1050Q1046 1050 1046 562Q1046 497 1037 432H340Q340 210 666 210Q825 210 984 240V30Q845 0 646 0Q75 0 75 537Q75 1050 568 1050ZM340 616H788V624Q788 842 568 842Q358 842 340 616ZM725
1171H501L262 1430H581L725 1171Z" />
<glyph unicode="&#xe9;" glyph-name="eacute" horiz-adv-x="1120" d="M568 1050Q1046 1050 1046 562Q1046 497 1037 432H340Q340 210 666 210Q825 210 984 240V30Q845 0 646 0Q75 0 75 537Q75 1050 568 1050ZM340 616H788V624Q788 842 568 842Q358 842 340 616ZM560
1430H879L640 1171H416L560 1430Z" />
<glyph unicode="&#xea;" glyph-name="ecircumflex" horiz-adv-x="1120" d="M568 1050Q1046 1050 1046 562Q1046 497 1037 432H340Q340 210 666 210Q825 210 984 240V30Q845 0 646 0Q75 0 75 537Q75 1050 568 1050ZM340 616H788V624Q788 842 568 842Q358 842 340
616ZM495 1430H645L820 1170H640L570 1300L500 1170H320L495 1430Z" />
<glyph unicode="&#xeb;" glyph-name="edieresis" horiz-adv-x="1120" d="M568 1050Q1046 1050 1046 562Q1046 497 1037 432H340Q340 210 666 210Q825 210 984 240V30Q845 0 646 0Q75 0 75 537Q75 1050 568 1050ZM340 616H788V624Q788 842 568 842Q358 842 340
616ZM848 1430V1240H633V1430H848ZM508 1430V1240H293V1430H508Z" />
<glyph unicode="&#xec;" glyph-name="igrave" horiz-adv-x="515" d="M390 1050V0H125V1050H390ZM412 1171H188L-51 1430H268L412 1171Z" />
<glyph unicode="&#xed;" glyph-name="iacute" horiz-adv-x="515" d="M390 1050V0H125V1050H390ZM247 1430H566L327 1171H103L247 1430Z" />
<glyph unicode="&#xee;" glyph-name="icircumflex" horiz-adv-x="515" d="M391 1050V0H126V1050H391ZM439 1430H589L764 1170H584L514 1300L444 1170H264L439 1430Z" />
<glyph unicode="&#xef;" glyph-name="idieresis" horiz-adv-x="515" d="M390 1050V0H125V1050H390ZM791 1430V1240H576V1430H791ZM451 1430V1240H236V1430H451Z" />
<glyph unicode="&#xf0;" glyph-name="eth" horiz-adv-x="1180" d="M840 646Q840 742 822 800Q732 850 588 850Q336 850 336 540Q336 200 589 200Q840 200 840 646ZM885 1268Q1105 1075 1105 650Q1105 -10 588 -10Q75 -10 75 540Q75 1050 509 1050Q686 1050 795
960Q733 1093 621 1158L390 1061V1180L466 1212Q416 1220 361 1220H155V1430H363Q612 1430 777 1342L987 1430V1311L885 1268Z" />
<glyph unicode="&#xf1;" glyph-name="ntilde" horiz-adv-x="1205" d="M125 0V1050H330L363 896Q514 1050 707 1050Q1080 1050 1080 662V0H815V662Q815 836 642 836Q513 836 390 733V0H125ZM373 1384Q433 1430 503 1430Q555 1430 613 1404Q671 1378 727 1378Q802
1378 873 1424V1214Q813 1168 743 1168Q691 1168 633 1194Q575 1220 519 1220Q444 1220 373 1174V1384Z" />
<glyph unicode="&#xf2;" glyph-name="ograve" horiz-adv-x="1190" d="M340 200T595 200Q850 200 850 529Q850 850 595 850Q340 850 340 529Q340 200 595 200ZM75 525Q75 1053 595 1053Q1115 1053 1115 525Q1115 -2 595 -2Q77 -2 75 525ZM749 1171H525L286 1430H605L749
1171Z" />
<glyph unicode="&#xf3;" glyph-name="oacute" horiz-adv-x="1190" d="M340 200T595 200Q850 200 850 529Q850 850 595 850Q340 850 340 529Q340 200 595 200ZM75 525Q75 1053 595 1053Q1115 1053 1115 525Q1115 -2 595 -2Q77 -2 75 525ZM585 1430H904L665 1171H441L585
1430Z" />
<glyph unicode="&#xf4;" glyph-name="ocircumflex" horiz-adv-x="1190" d="M340 200T595 200Q850 200 850 529Q850 850 595 850Q340 850 340 529Q340 200 595 200ZM75 525Q75 1053 595 1053Q1115 1053 1115 525Q1115 -2 595 -2Q77 -2 75 525ZM520 1430H670L845
1170H665L595 1300L525 1170H345L520 1430Z" />
<glyph unicode="&#xf5;" glyph-name="otilde" horiz-adv-x="1190" d="M340 200T595 200Q850 200 850 529Q850 850 595 850Q340 850 340 529Q340 200 595 200ZM75 525Q75 1053 595 1053Q1115 1053 1115 525Q1115 -2 595 -2Q77 -2 75 525ZM345 1384Q405 1430 475
1430Q527 1430 585 1404Q643 1378 699 1378Q774 1378 845 1424V1214Q785 1168 715 1168Q663 1168 605 1194Q547 1220 491 1220Q416 1220 345 1174V1384Z" />
<glyph unicode="&#xf6;" glyph-name="odieresis" horiz-adv-x="1190" d="M340 200T595 200Q850 200 850 529Q850 850 595 850Q340 850 340 529Q340 200 595 200ZM75 525Q75 1053 595 1053Q1115 1053 1115 525Q1115 -2 595 -2Q77 -2 75 525ZM873 1430V1240H658V1430H873ZM533
1430V1240H318V1430H533Z" />
<glyph unicode="&#xf7;" glyph-name="divide" horiz-adv-x="985" d="M885 630V420H100V630H885ZM605 340V150H380V340H605ZM605 900V710H380V900H605Z" />
<glyph unicode="&#xf8;" glyph-name="oslash" horiz-adv-x="1180" d="M484 219Q532 200 595 200Q860 200 860 529Q860 619 839 684L484 219ZM348 379L696 835Q652 850 595 850Q330 850 330 529Q330 442 348 379ZM342 32L317 0H60L175 151Q66 283 65 525Q65 1060
595 1060Q736 1060 839 1022L860 1050H1118L1010 908Q1125 775 1125 525Q1125 -9 595 -9Q448 -9 342 32Z" />
<glyph unicode="&#xf9;" glyph-name="ugrave" horiz-adv-x="1195" d="M1070 1050V0H863L831 134Q650 0 447 0Q125 0 125 381V1050H390V388Q390 214 542 214Q671 214 805 317V1050H1070ZM752 1171H528L289 1430H608L752 1171Z" />
<glyph unicode="&#xfa;" glyph-name="uacute" horiz-adv-x="1195" d="M1070 1050V0H863L831 134Q650 0 447 0Q125 0 125 381V1050H390V388Q390 214 542 214Q671 214 805 317V1050H1070ZM587 1430H906L667 1171H443L587 1430Z" />
<glyph unicode="&#xfb;" glyph-name="ucircumflex" horiz-adv-x="1195" d="M1070 1050V0H863L831 134Q650 0 447 0Q125 0 125 381V1050H390V388Q390 214 542 214Q671 214 805 317V1050H1070ZM523 1430H673L848 1170H668L598 1300L528 1170H348L523 1430Z" />
<glyph unicode="&#xfc;" glyph-name="udieresis" horiz-adv-x="1195" d="M1070 1050V0H863L831 134Q650 0 447 0Q125 0 125 381V1050H390V388Q390 214 542 214Q671 214 805 317V1050H1070ZM875 1430V1240H660V1430H875ZM535 1430V1240H320V1430H535Z" />
<glyph unicode="&#xfd;" glyph-name="yacute" horiz-adv-x="1081" d="M0 1050H281L546 294L805 1050H1081L645 -31Q529 -317 274 -438L146 -257Q322 -180 402 -6L0 1050ZM530 1430H849L610 1171H386L530 1430Z" />
<glyph unicode="&#xfe;" glyph-name="thorn" horiz-adv-x="1177" d="M390 1024Q477 1050 587 1050Q1102 1050 1102 541Q1102 0 604 0Q498 0 390 50V-380H125V1430H390V1024ZM390 822V274Q489 220 603 220Q840 220 840 543Q840 836 578 836Q465 836 390 822Z" />
<glyph unicode="&#xff;" glyph-name="ydieresis" horiz-adv-x="1081" d="M0 1050H281L546 294L805 1050H1081L645 -31Q529 -317 274 -438L146 -257Q322 -180 402 -6L0 1050ZM824 1430V1240H609V1430H824ZM484 1430V1240H269V1430H484Z" />
</font>
</defs>
</svg>
